<mxfile host="app.diagrams.net" agent="Mozilla/5.0 (Windows NT 10.0; Win64; x64) AppleWebKit/537.36 (KHTML, like Gecko) Chrome/137.0.0.0 Safari/537.36 Edg/137.0.0.0" version="27.1.6">
  <diagram name="Página-1" id="Lag96efnhmsNSRjMmsMt">
    <mxGraphModel grid="1" page="1" gridSize="10" guides="1" tooltips="1" connect="1" arrows="1" fold="1" pageScale="1" pageWidth="827" pageHeight="1169" math="0" shadow="0">
      <root>
        <mxCell id="0" />
        <mxCell id="1" parent="0" />
        <mxCell id="xJiOAAKRRi7dTSyAJgHH-1" value="Administrador" style="html=1;whiteSpace=wrap;" vertex="1" parent="1">
          <mxGeometry x="40" y="40" width="110" height="50" as="geometry" />
        </mxCell>
        <mxCell id="xJiOAAKRRi7dTSyAJgHH-2" value="Sistema&lt;span style=&quot;color: rgba(0, 0, 0, 0); font-family: monospace; font-size: 0px; text-align: start; text-wrap-mode: nowrap;&quot;&gt;%3CmxGraphModel%3E%3Croot%3E%3CmxCell%20id%3D%220%22%2F%3E%3CmxCell%20id%3D%221%22%20parent%3D%220%22%2F%3E%3CmxCell%20id%3D%222%22%20value%3D%22Usuario%22%20style%3D%22html%3D1%3BwhiteSpace%3Dwrap%3B%22%20vertex%3D%221%22%20parent%3D%221%22%3E%3CmxGeometry%20x%3D%2270%22%20y%3D%2240%22%20width%3D%22110%22%20height%3D%2250%22%20as%3D%22geometry%22%2F%3E%3C%2FmxCell%3E%3C%2Froot%3E%3C%2FmxGraphModel%3E&lt;/span&gt;" style="html=1;whiteSpace=wrap;" vertex="1" parent="1">
          <mxGeometry x="231.25" y="40" width="110" height="50" as="geometry" />
        </mxCell>
        <mxCell id="xJiOAAKRRi7dTSyAJgHH-3" value="Base de datos" style="html=1;whiteSpace=wrap;" vertex="1" parent="1">
          <mxGeometry x="440" y="40" width="110" height="50" as="geometry" />
        </mxCell>
        <mxCell id="xJiOAAKRRi7dTSyAJgHH-4" style="edgeStyle=orthogonalEdgeStyle;rounded=0;orthogonalLoop=1;jettySize=auto;html=1;exitX=0.5;exitY=0;exitDx=0;exitDy=0;dashed=1;endArrow=none;startFill=0;" edge="1" parent="1" source="xJiOAAKRRi7dTSyAJgHH-5" target="xJiOAAKRRi7dTSyAJgHH-1">
          <mxGeometry relative="1" as="geometry" />
        </mxCell>
        <mxCell id="xJiOAAKRRi7dTSyAJgHH-5" value="Administrador" style="html=1;whiteSpace=wrap;" vertex="1" parent="1">
          <mxGeometry x="40" y="680" width="110" height="50" as="geometry" />
        </mxCell>
        <mxCell id="xJiOAAKRRi7dTSyAJgHH-6" style="edgeStyle=orthogonalEdgeStyle;rounded=0;orthogonalLoop=1;jettySize=auto;html=1;exitX=0.5;exitY=0;exitDx=0;exitDy=0;dashed=1;endArrow=none;startFill=0;" edge="1" parent="1" source="xJiOAAKRRi7dTSyAJgHH-7" target="xJiOAAKRRi7dTSyAJgHH-2">
          <mxGeometry relative="1" as="geometry" />
        </mxCell>
        <mxCell id="xJiOAAKRRi7dTSyAJgHH-7" value="Sistema&lt;span style=&quot;color: rgba(0, 0, 0, 0); font-family: monospace; font-size: 0px; text-align: start; text-wrap-mode: nowrap;&quot;&gt;%3CmxGraphModel%3E%3Croot%3E%3CmxCell%20id%3D%220%22%2F%3E%3CmxCell%20id%3D%221%22%20parent%3D%220%22%2F%3E%3CmxCell%20id%3D%222%22%20value%3D%22Usuario%22%20style%3D%22html%3D1%3BwhiteSpace%3Dwrap%3B%22%20vertex%3D%221%22%20parent%3D%221%22%3E%3CmxGeometry%20x%3D%2270%22%20y%3D%2240%22%20width%3D%22110%22%20height%3D%2250%22%20as%3D%22geometry%22%2F%3E%3C%2FmxCell%3E%3C%2Froot%3E%3C%2FmxGraphModel%3E&lt;/span&gt;" style="html=1;whiteSpace=wrap;" vertex="1" parent="1">
          <mxGeometry x="231.88" y="680" width="110" height="50" as="geometry" />
        </mxCell>
        <mxCell id="xJiOAAKRRi7dTSyAJgHH-8" value="Base de datos" style="html=1;whiteSpace=wrap;" vertex="1" parent="1">
          <mxGeometry x="440" y="680" width="110" height="50" as="geometry" />
        </mxCell>
        <mxCell id="xJiOAAKRRi7dTSyAJgHH-9" value="" style="endArrow=none;dashed=1;html=1;rounded=0;entryX=0.5;entryY=1;entryDx=0;entryDy=0;" edge="1" parent="1" source="xJiOAAKRRi7dTSyAJgHH-26" target="xJiOAAKRRi7dTSyAJgHH-1">
          <mxGeometry width="50" height="50" relative="1" as="geometry">
            <mxPoint x="91" y="205" as="sourcePoint" />
            <mxPoint x="90" y="90" as="targetPoint" />
          </mxGeometry>
        </mxCell>
        <mxCell id="xJiOAAKRRi7dTSyAJgHH-10" value="" style="endArrow=none;dashed=1;html=1;rounded=0;entryX=0.5;entryY=1;entryDx=0;entryDy=0;" edge="1" parent="1" target="xJiOAAKRRi7dTSyAJgHH-3">
          <mxGeometry width="50" height="50" relative="1" as="geometry">
            <mxPoint x="495" y="210" as="sourcePoint" />
            <mxPoint x="310" y="110" as="targetPoint" />
          </mxGeometry>
        </mxCell>
        <mxCell id="xJiOAAKRRi7dTSyAJgHH-11" value="" style="endArrow=classic;html=1;rounded=0;entryX=0;entryY=0;entryDx=0;entryDy=5;entryPerimeter=0;" edge="1" parent="1" target="xJiOAAKRRi7dTSyAJgHH-20">
          <mxGeometry width="50" height="50" relative="1" as="geometry">
            <mxPoint x="100" y="135" as="sourcePoint" />
            <mxPoint x="200" y="110" as="targetPoint" />
          </mxGeometry>
        </mxCell>
        <mxCell id="xJiOAAKRRi7dTSyAJgHH-12" value="1. Ingresar apartado &quot;Administración de eventos&quot;" style="text;html=1;align=center;verticalAlign=middle;whiteSpace=wrap;rounded=0;" vertex="1" parent="1">
          <mxGeometry x="110" y="110" width="170" height="20" as="geometry" />
        </mxCell>
        <mxCell id="xJiOAAKRRi7dTSyAJgHH-13" value="" style="endArrow=none;dashed=1;html=1;rounded=0;entryX=0.5;entryY=1;entryDx=0;entryDy=0;" edge="1" parent="1" source="xJiOAAKRRi7dTSyAJgHH-22">
          <mxGeometry width="50" height="50" relative="1" as="geometry">
            <mxPoint x="495.63" y="245" as="sourcePoint" />
            <mxPoint x="495.63" y="155" as="targetPoint" />
          </mxGeometry>
        </mxCell>
        <mxCell id="xJiOAAKRRi7dTSyAJgHH-14" value="2. Solicita listado de eventos" style="text;html=1;align=center;verticalAlign=middle;whiteSpace=wrap;rounded=0;" vertex="1" parent="1">
          <mxGeometry x="326.38" y="155" width="136" height="20" as="geometry" />
        </mxCell>
        <mxCell id="xJiOAAKRRi7dTSyAJgHH-15" value="" style="endArrow=classic;html=1;rounded=0;fontSize=12;startSize=8;endSize=8;curved=1;entryX=0;entryY=0;entryDx=0;entryDy=5;entryPerimeter=0;" edge="1" parent="1">
          <mxGeometry width="50" height="50" relative="1" as="geometry">
            <mxPoint x="299.38" y="185" as="sourcePoint" />
            <mxPoint x="489.38" y="185" as="targetPoint" />
          </mxGeometry>
        </mxCell>
        <mxCell id="xJiOAAKRRi7dTSyAJgHH-16" value="3. Devuelve listado de eventos" style="text;html=1;align=center;verticalAlign=middle;whiteSpace=wrap;rounded=0;" vertex="1" parent="1">
          <mxGeometry x="334.38" y="220" width="120" height="20" as="geometry" />
        </mxCell>
        <mxCell id="xJiOAAKRRi7dTSyAJgHH-17" value="" style="endArrow=classic;html=1;rounded=0;fontSize=12;startSize=8;endSize=8;curved=0;" edge="1" parent="1" target="xJiOAAKRRi7dTSyAJgHH-23">
          <mxGeometry width="50" height="50" relative="1" as="geometry">
            <mxPoint x="490.63" y="250" as="sourcePoint" />
            <mxPoint x="294.38" y="390" as="targetPoint" />
            <Array as="points" />
          </mxGeometry>
        </mxCell>
        <mxCell id="xJiOAAKRRi7dTSyAJgHH-19" value="" style="endArrow=none;dashed=1;html=1;rounded=0;entryX=0.5;entryY=1;entryDx=0;entryDy=0;exitX=0.5;exitY=0;exitDx=0;exitDy=0;" edge="1" parent="1" source="xJiOAAKRRi7dTSyAJgHH-8">
          <mxGeometry width="50" height="50" relative="1" as="geometry">
            <mxPoint x="495" y="610" as="sourcePoint" />
            <mxPoint x="495" y="290" as="targetPoint" />
          </mxGeometry>
        </mxCell>
        <mxCell id="xJiOAAKRRi7dTSyAJgHH-20" value="" style="html=1;points=[[0,0,0,0,5],[0,1,0,0,-5],[1,0,0,0,5],[1,1,0,0,-5]];perimeter=orthogonalPerimeter;outlineConnect=0;targetShapes=umlLifeline;portConstraint=eastwest;newEdgeStyle={&quot;curved&quot;:0,&quot;rounded&quot;:0};" vertex="1" parent="1">
          <mxGeometry x="281.25" y="130" width="10" height="40" as="geometry" />
        </mxCell>
        <mxCell id="xJiOAAKRRi7dTSyAJgHH-21" value="" style="endArrow=none;dashed=1;html=1;rounded=0;entryX=0.5;entryY=1;entryDx=0;entryDy=0;" edge="1" parent="1" target="xJiOAAKRRi7dTSyAJgHH-22">
          <mxGeometry width="50" height="50" relative="1" as="geometry">
            <mxPoint x="495" y="290" as="sourcePoint" />
            <mxPoint x="495" y="200" as="targetPoint" />
          </mxGeometry>
        </mxCell>
        <mxCell id="xJiOAAKRRi7dTSyAJgHH-22" value="" style="html=1;points=[[0,0,0,0,5],[0,1,0,0,-5],[1,0,0,0,5],[1,1,0,0,-5]];perimeter=orthogonalPerimeter;outlineConnect=0;targetShapes=umlLifeline;portConstraint=eastwest;newEdgeStyle={&quot;curved&quot;:0,&quot;rounded&quot;:0};" vertex="1" parent="1">
          <mxGeometry x="490.63" y="175" width="10" height="40" as="geometry" />
        </mxCell>
        <mxCell id="xJiOAAKRRi7dTSyAJgHH-23" value="" style="html=1;points=[[0,0,0,0,5],[0,1,0,0,-5],[1,0,0,0,5],[1,1,0,0,-5]];perimeter=orthogonalPerimeter;outlineConnect=0;targetShapes=umlLifeline;portConstraint=eastwest;newEdgeStyle={&quot;curved&quot;:0,&quot;rounded&quot;:0};" vertex="1" parent="1">
          <mxGeometry x="281.88" y="230" width="10" height="40" as="geometry" />
        </mxCell>
        <mxCell id="xJiOAAKRRi7dTSyAJgHH-24" value="" style="endArrow=classic;html=1;rounded=0;fontSize=12;startSize=8;endSize=8;curved=0;" edge="1" parent="1" target="xJiOAAKRRi7dTSyAJgHH-26">
          <mxGeometry width="50" height="50" relative="1" as="geometry">
            <mxPoint x="280" y="320" as="sourcePoint" />
            <mxPoint x="92.25" y="320" as="targetPoint" />
            <Array as="points" />
          </mxGeometry>
        </mxCell>
        <mxCell id="xJiOAAKRRi7dTSyAJgHH-25" value="4. Mostrar lista de eventos" style="text;html=1;align=center;verticalAlign=middle;whiteSpace=wrap;rounded=0;" vertex="1" parent="1">
          <mxGeometry x="122.5" y="300" width="145" height="20" as="geometry" />
        </mxCell>
        <mxCell id="xJiOAAKRRi7dTSyAJgHH-26" value="" style="html=1;points=[[0,0,0,0,5],[0,1,0,0,-5],[1,0,0,0,5],[1,1,0,0,-5]];perimeter=orthogonalPerimeter;outlineConnect=0;targetShapes=umlLifeline;portConstraint=eastwest;newEdgeStyle={&quot;curved&quot;:0,&quot;rounded&quot;:0};" vertex="1" parent="1">
          <mxGeometry x="90" y="310" width="10" height="350" as="geometry" />
        </mxCell>
        <mxCell id="xJiOAAKRRi7dTSyAJgHH-27" value="" style="endArrow=classic;html=1;rounded=0;" edge="1" parent="1">
          <mxGeometry width="50" height="50" relative="1" as="geometry">
            <mxPoint x="281.88" y="360" as="sourcePoint" />
            <mxPoint x="100.44" y="360" as="targetPoint" />
          </mxGeometry>
        </mxCell>
        <mxCell id="xJiOAAKRRi7dTSyAJgHH-28" value="4.1. Crear evento" style="text;html=1;align=center;verticalAlign=middle;whiteSpace=wrap;rounded=0;" vertex="1" parent="1">
          <mxGeometry x="109.32" y="340" width="170" height="20" as="geometry" />
        </mxCell>
        <mxCell id="xJiOAAKRRi7dTSyAJgHH-29" value="" style="endArrow=classic;html=1;rounded=0;" edge="1" parent="1">
          <mxGeometry width="50" height="50" relative="1" as="geometry">
            <mxPoint x="281.88" y="400" as="sourcePoint" />
            <mxPoint x="100.44" y="400" as="targetPoint" />
          </mxGeometry>
        </mxCell>
        <mxCell id="xJiOAAKRRi7dTSyAJgHH-30" value="4.2. Cancelar evento&amp;nbsp;" style="text;html=1;align=center;verticalAlign=middle;whiteSpace=wrap;rounded=0;" vertex="1" parent="1">
          <mxGeometry x="109.32" y="380" width="170" height="20" as="geometry" />
        </mxCell>
        <mxCell id="xJiOAAKRRi7dTSyAJgHH-31" value="" style="endArrow=classic;html=1;rounded=0;" edge="1" parent="1">
          <mxGeometry width="50" height="50" relative="1" as="geometry">
            <mxPoint x="281.88" y="440" as="sourcePoint" />
            <mxPoint x="100.44" y="440" as="targetPoint" />
          </mxGeometry>
        </mxCell>
        <mxCell id="xJiOAAKRRi7dTSyAJgHH-32" value="4.3. Editar evento" style="text;html=1;align=center;verticalAlign=middle;whiteSpace=wrap;rounded=0;" vertex="1" parent="1">
          <mxGeometry x="111.82" y="420" width="170" height="20" as="geometry" />
        </mxCell>
        <mxCell id="xJiOAAKRRi7dTSyAJgHH-34" value="" style="endArrow=classic;html=1;rounded=0;" edge="1" parent="1">
          <mxGeometry width="50" height="50" relative="1" as="geometry">
            <mxPoint x="281.88" y="470" as="sourcePoint" />
            <mxPoint x="100.44" y="470" as="targetPoint" />
          </mxGeometry>
        </mxCell>
        <mxCell id="xJiOAAKRRi7dTSyAJgHH-35" value="4.4. Modificar estado de evento" style="text;html=1;align=center;verticalAlign=middle;whiteSpace=wrap;rounded=0;" vertex="1" parent="1">
          <mxGeometry x="109.32" y="450" width="170" height="20" as="geometry" />
        </mxCell>
        <mxCell id="xJiOAAKRRi7dTSyAJgHH-36" value="" style="endArrow=classic;html=1;rounded=0;" edge="1" parent="1">
          <mxGeometry width="50" height="50" relative="1" as="geometry">
            <mxPoint x="281.88" y="510" as="sourcePoint" />
            <mxPoint x="100.44" y="510" as="targetPoint" />
          </mxGeometry>
        </mxCell>
        <mxCell id="xJiOAAKRRi7dTSyAJgHH-37" value="4.5. Visualizar calendario" style="text;html=1;align=center;verticalAlign=middle;whiteSpace=wrap;rounded=0;" vertex="1" parent="1">
          <mxGeometry x="109.32" y="490" width="170" height="20" as="geometry" />
        </mxCell>
        <mxCell id="xJiOAAKRRi7dTSyAJgHH-38" value="" style="endArrow=classic;html=1;rounded=0;entryX=0;entryY=0;entryDx=0;entryDy=5;entryPerimeter=0;" edge="1" parent="1" source="xJiOAAKRRi7dTSyAJgHH-26" target="xJiOAAKRRi7dTSyAJgHH-47">
          <mxGeometry width="50" height="50" relative="1" as="geometry">
            <mxPoint x="281.88" y="550" as="sourcePoint" />
            <mxPoint x="690" y="550" as="targetPoint" />
            <Array as="points">
              <mxPoint x="400" y="545" />
            </Array>
          </mxGeometry>
        </mxCell>
        <mxCell id="xJiOAAKRRi7dTSyAJgHH-39" value="4.6. Visualizar detalles de evento" style="text;html=1;align=center;verticalAlign=middle;whiteSpace=wrap;rounded=0;" vertex="1" parent="1">
          <mxGeometry x="510" y="520" width="170" height="20" as="geometry" />
        </mxCell>
        <mxCell id="xJiOAAKRRi7dTSyAJgHH-40" value="Usuario" style="html=1;whiteSpace=wrap;" vertex="1" parent="1">
          <mxGeometry x="640" y="40" width="110" height="50" as="geometry" />
        </mxCell>
        <mxCell id="xJiOAAKRRi7dTSyAJgHH-41" value="Usuario" style="html=1;whiteSpace=wrap;" vertex="1" parent="1">
          <mxGeometry x="640" y="680" width="110" height="50" as="geometry" />
        </mxCell>
        <mxCell id="xJiOAAKRRi7dTSyAJgHH-42" value="" style="endArrow=none;dashed=1;html=1;rounded=0;entryX=0.5;entryY=1;entryDx=0;entryDy=0;" edge="1" parent="1" target="xJiOAAKRRi7dTSyAJgHH-40">
          <mxGeometry width="50" height="50" relative="1" as="geometry">
            <mxPoint x="695" y="210" as="sourcePoint" />
            <mxPoint x="510" y="110" as="targetPoint" />
          </mxGeometry>
        </mxCell>
        <mxCell id="xJiOAAKRRi7dTSyAJgHH-43" value="" style="endArrow=none;dashed=1;html=1;rounded=0;entryX=0.5;entryY=1;entryDx=0;entryDy=0;" edge="1" parent="1">
          <mxGeometry width="50" height="50" relative="1" as="geometry">
            <mxPoint x="695.6300000000003" y="175" as="sourcePoint" />
            <mxPoint x="695.63" y="155" as="targetPoint" />
          </mxGeometry>
        </mxCell>
        <mxCell id="xJiOAAKRRi7dTSyAJgHH-44" value="" style="endArrow=none;dashed=1;html=1;rounded=0;entryX=0.5;entryY=1;entryDx=0;entryDy=0;exitX=0.5;exitY=0;exitDx=0;exitDy=0;" edge="1" parent="1" source="xJiOAAKRRi7dTSyAJgHH-41">
          <mxGeometry width="50" height="50" relative="1" as="geometry">
            <mxPoint x="695" y="610" as="sourcePoint" />
            <mxPoint x="695" y="290" as="targetPoint" />
          </mxGeometry>
        </mxCell>
        <mxCell id="xJiOAAKRRi7dTSyAJgHH-45" value="" style="endArrow=none;dashed=1;html=1;rounded=0;entryX=0.5;entryY=1;entryDx=0;entryDy=0;" edge="1" parent="1">
          <mxGeometry width="50" height="50" relative="1" as="geometry">
            <mxPoint x="695" y="290" as="sourcePoint" />
            <mxPoint x="695.6300000000003" y="215" as="targetPoint" />
          </mxGeometry>
        </mxCell>
        <mxCell id="xJiOAAKRRi7dTSyAJgHH-47" value="" style="html=1;points=[[0,0,0,0,5],[0,1,0,0,-5],[1,0,0,0,5],[1,1,0,0,-5]];perimeter=orthogonalPerimeter;outlineConnect=0;targetShapes=umlLifeline;portConstraint=eastwest;newEdgeStyle={&quot;curved&quot;:0,&quot;rounded&quot;:0};" vertex="1" parent="1">
          <mxGeometry x="690" y="540" width="10" height="40" as="geometry" />
        </mxCell>
        <mxCell id="xJiOAAKRRi7dTSyAJgHH-48" value="4.7. Solicitud cancelar evento" style="text;html=1;align=center;verticalAlign=middle;whiteSpace=wrap;rounded=0;" vertex="1" parent="1">
          <mxGeometry x="510" y="585" width="170" height="20" as="geometry" />
        </mxCell>
        <mxCell id="xJiOAAKRRi7dTSyAJgHH-49" value="" style="html=1;points=[[0,0,0,0,5],[0,1,0,0,-5],[1,0,0,0,5],[1,1,0,0,-5]];perimeter=orthogonalPerimeter;outlineConnect=0;targetShapes=umlLifeline;portConstraint=eastwest;newEdgeStyle={&quot;curved&quot;:0,&quot;rounded&quot;:0};" vertex="1" parent="1">
          <mxGeometry x="690" y="605" width="10" height="40" as="geometry" />
        </mxCell>
        <mxCell id="xJiOAAKRRi7dTSyAJgHH-50" value="" style="endArrow=classic;html=1;rounded=0;entryX=0;entryY=0;entryDx=0;entryDy=5;entryPerimeter=0;" edge="1" parent="1" source="xJiOAAKRRi7dTSyAJgHH-26" target="xJiOAAKRRi7dTSyAJgHH-49">
          <mxGeometry width="50" height="50" relative="1" as="geometry">
            <mxPoint x="110" y="610" as="sourcePoint" />
            <mxPoint x="689.38" y="610" as="targetPoint" />
            <Array as="points">
              <mxPoint x="399.38" y="610" />
            </Array>
          </mxGeometry>
        </mxCell>
      </root>
    </mxGraphModel>
  </diagram>
</mxfile>
